<svg width="11" height="6" viewBox="0 0 11 6" fill="none" xmlns="http://www.w3.org/2000/svg">
<path fill-rule="evenodd" clip-rule="evenodd" d="M0.873866 5.37388C0.806902 5.30692 0.77342 5.22991 0.77342 5.14286C0.77342 5.0558 0.806902 4.97879 0.873866 4.91183L5.55467 0.231027C5.62163 0.164062 5.69864 0.13058 5.7857 0.13058C5.87275 0.13058 5.94976 0.164062 6.01672 0.231027L10.6975 4.91183C10.7645 4.97879 10.798 5.0558 10.798 5.14286C10.798 5.22991 10.7645 5.30692 10.6975 5.37388L10.1953 5.87612C10.1283 5.94308 10.0513 5.97656 9.96427 5.97656C9.87721 5.97656 9.80021 5.94308 9.73324 5.87612L5.7857 1.92857L1.83815 5.87612C1.77119 5.94308 1.69418 5.97656 1.60713 5.97656C1.52007 5.97656 1.44306 5.94308 1.3761 5.87612L0.873866 5.37388Z" fill="white"/>
</svg>
