<svg width="21" height="21" viewBox="0 0 21 21" fill="none" xmlns="http://www.w3.org/2000/svg">
<path fill-rule="evenodd" clip-rule="evenodd" d="M18.2789 10.3571C18.2789 8.95758 17.934 7.66853 17.2443 6.48995C16.5545 5.30468 15.6187 4.36719 14.4368 3.67745C13.2549 2.98772 11.9641 2.64286 10.5646 2.64286C9.16501 2.64286 7.87429 2.98772 6.69236 3.67745C5.51043 4.36719 4.57462 5.30301 3.88488 6.48493C3.19515 7.66686 2.85028 8.95758 2.85028 10.3571C2.85028 11.7567 3.19515 13.0474 3.88488 14.2294C4.57462 15.4113 5.51043 16.3471 6.69236 17.0368C7.87429 17.7266 9.16501 18.0714 10.5646 18.0714C11.9641 18.0714 13.2549 17.7266 14.4368 17.0368C15.6187 16.3471 16.5545 15.4113 17.2443 14.2294C17.934 13.0474 18.2789 11.7567 18.2789 10.3571ZM14.4217 8.42857C14.4217 7.83928 14.2359 7.29353 13.8642 6.79129C13.4926 6.28906 13.0289 5.90067 12.4731 5.62612C11.9172 5.35156 11.3481 5.21429 10.7655 5.21429C9.13822 5.21429 7.89605 5.92745 7.0389 7.35379C6.93845 7.51451 6.96524 7.65513 7.11926 7.77567L8.44515 8.78013C8.49203 8.82031 8.55564 8.8404 8.636 8.8404C8.74314 8.8404 8.82685 8.80022 8.88712 8.71987C9.24203 8.26451 9.52997 7.95647 9.75095 7.79576C9.97863 7.63504 10.2666 7.55469 10.6148 7.55469C10.9362 7.55469 11.2225 7.64174 11.4736 7.81585C11.7247 7.98996 11.8503 8.1875 11.8503 8.40848C11.8503 8.66295 11.7833 8.86719 11.6494 9.0212C11.5155 9.17522 11.2878 9.32589 10.9664 9.47321C10.5445 9.66071 10.1578 9.95033 9.8062 10.3421C9.45464 10.7338 9.27886 11.154 9.27886 11.6027V11.9643C9.27886 12.058 9.30899 12.135 9.36926 12.1953C9.42953 12.2556 9.50653 12.2857 9.60028 12.2857H11.5289C11.6226 12.2857 11.6996 12.2556 11.7599 12.1953C11.8202 12.135 11.8503 12.058 11.8503 11.9643C11.8503 11.8371 11.9223 11.6713 12.0662 11.4671C12.2102 11.2628 12.3927 11.0971 12.6137 10.9699C12.828 10.8493 12.992 10.7539 13.1059 10.6836C13.2197 10.6133 13.3737 10.4961 13.5679 10.332C13.7621 10.168 13.9111 10.0073 14.0149 9.84989C14.1187 9.69252 14.2124 9.48996 14.2962 9.24219C14.3799 8.99442 14.4217 8.72322 14.4217 8.42857ZM11.8503 15.1786V13.25C11.8503 13.1562 11.8202 13.0792 11.7599 13.019C11.6996 12.9587 11.6226 12.9286 11.5289 12.9286H9.60028C9.50653 12.9286 9.42953 12.9587 9.36926 13.019C9.30899 13.0792 9.27886 13.1562 9.27886 13.25V15.1786C9.27886 15.2723 9.30899 15.3493 9.36926 15.4096C9.42953 15.4699 9.50653 15.5 9.60028 15.5H11.5289C11.6226 15.5 11.6996 15.4699 11.7599 15.4096C11.8202 15.3493 11.8503 15.2723 11.8503 15.1786Z" fill="white"/>
</svg>
