<svg width="77" height="79" viewBox="0 0 77 79" fill="none" xmlns="http://www.w3.org/2000/svg">
<path fill-rule="evenodd" clip-rule="evenodd" d="M44.6168 8.42104C44.6492 8.84947 44.6648 9.05243 44.6855 9.33049L44.4708 9.57858C44.4869 10.1544 44.5089 10.7102 44.5162 11.2658C44.5225 11.7346 44.4849 12.206 44.5163 12.6724C44.5515 13.192 44.5259 13.7109 44.5858 14.2355C44.6403 14.7087 44.8352 15.2 44.7138 15.6733C44.5715 16.2233 44.8896 16.7034 44.85 17.2354C44.8132 17.7267 44.8683 18.2245 44.8832 18.7183C44.8943 18.7174 44.9687 18.7118 45.0614 18.7054C45.2985 20.1703 45.5005 21.648 46.1932 23.0814C46.179 23.12 46.1317 23.2506 46.0734 23.411C46.1789 23.4152 46.2752 23.4191 46.3744 23.4228C46.6865 24.2218 47.0543 25.016 47.3409 25.821C47.6936 26.8124 48.2738 27.7093 48.4788 28.7657C48.5818 29.2962 48.8655 29.8254 49.19 30.2644C49.3892 30.5331 49.2021 30.6506 49.1822 30.859C49.3076 30.8793 49.433 30.9002 49.6012 30.9274C49.8484 31.5609 50.1032 32.2128 50.3655 32.8845C50.1885 32.9056 50.0813 32.918 49.9122 32.9382C49.8787 33.2756 49.5793 33.6065 50.0318 34.1502C49.6948 34.0169 49.4862 33.9345 49.2295 33.8329C49.2782 34.2705 49.2971 34.4424 49.321 34.6591C49.4678 34.6837 49.6054 34.7064 49.7567 34.7315C49.8242 34.9214 49.9021 35.1389 49.9769 35.3487C49.9055 35.4091 49.8389 35.5032 49.7977 35.4938C49.4932 35.4204 49.1933 35.3264 48.8943 35.2397C48.4702 35.5798 48.8981 35.886 48.9215 36.2053C48.8461 36.2107 48.771 36.2158 48.6668 36.2237C48.6305 36.3681 48.5917 36.5219 48.5509 36.6837C48.22 36.6489 47.9082 36.6162 47.4655 36.5695C46.7124 36.0111 45.8959 35.2976 44.9737 34.7681C44.4976 34.4942 44.102 34.0386 43.6205 33.9051C43.0226 33.739 42.7643 33.1798 42.2667 33.0067C41.7181 32.8152 41.3833 32.3393 40.9041 32.1361C40.3779 31.9131 40.0261 31.4582 39.5479 31.2537C38.4095 30.7672 37.4774 29.889 36.2596 29.5715C35.9691 29.1395 35.3027 29.1424 35.12 28.5856C34.5117 28.4937 34.0077 28.1671 33.4861 27.8736C32.7499 27.4591 31.8916 27.2927 31.222 26.7276C31.0325 26.5681 30.7202 26.5542 30.3038 26.4234C30.9042 27.3482 31.4191 28.142 32.0493 29.1127C32.0457 29.2131 32.0331 29.5468 32.0201 29.8833C32.3315 30.0267 32.5505 30.1275 32.7841 30.2354C33.2965 31.1979 34.2068 32.0304 34.3287 33.2537C34.8646 33.1598 35.0255 33.7246 35.3792 33.8767C35.8882 35.1293 36.8202 36.0215 37.6315 37.1786C37.6319 37.2003 37.6369 37.3876 37.6416 37.5658C37.8886 38.0254 38.4431 38.1732 38.6125 38.7371C38.7349 39.1464 39.1164 39.5417 39.4843 39.797C39.9332 40.1087 40.236 40.5646 40.4018 40.9802C40.6076 41.4962 41.06 41.6608 41.3539 42.0909C41.3576 42.219 41.3629 42.4065 41.3703 42.6665C42.285 43.3203 42.9986 44.2269 43.8275 45.0623C43.8162 45.2438 43.8046 45.4249 43.7901 45.6588L44.666 46.4165C44.4472 46.4497 44.3461 46.4646 44.1355 46.496C44.6103 46.8328 44.6593 47.2827 44.6103 47.811C44.496 47.8512 44.3643 47.8978 44.2526 47.9376C44.3006 48.7507 44.3498 49.5858 44.3949 50.3478C44.1338 50.5185 43.9356 50.6477 43.6798 50.8147C43.5924 50.7911 43.4282 50.7466 43.2644 50.7023L43.0912 50.9025C43.1545 51.0098 43.2241 51.1281 43.3302 51.3081C42.9312 51.8447 42.3432 51.9203 41.7387 51.9341C41.2836 51.6581 41.2836 51.6581 40.585 51.9191C40.8587 51.9751 40.9624 51.9964 41.1237 52.0297C41.0767 52.1238 41.024 52.231 40.9498 52.3793C40.7335 52.2426 40.5559 52.13 40.3356 51.9909C40.3295 52.1335 40.3249 52.2281 40.3217 52.2982C39.6368 52.4593 38.9505 52.6208 38.1813 52.8015L37.801 52.4725C37.7995 52.6459 37.7983 52.7472 37.7971 52.8848C37.6682 52.8324 37.5468 52.7828 37.3865 52.7174L37.0735 53.0792C36.8666 53.0942 36.7168 53.1047 36.566 53.1156C36.5142 52.8002 36.2391 52.5091 36.462 52.1597C35.8599 52.3042 36.0685 52.7728 36.0547 53.2407C35.8728 53.109 35.7309 53.0065 35.5822 52.8987C35.066 53.0661 34.5216 53.1236 34.0899 53.5941C33.7298 53.9869 33.1583 53.8397 32.616 53.6569C32.605 53.8013 32.5984 53.8887 32.5857 54.0629C32.4068 53.9607 32.2484 53.8697 32.0465 53.7536C32.0172 53.7989 31.9739 53.866 31.8444 54.0651C31.4909 54.1514 30.9537 54.1818 30.5222 54.4115C29.9077 54.7387 29.2288 54.4383 28.6051 54.7838C28.0582 55.0867 27.412 55.2183 26.7512 55.2978C25.8502 55.4061 24.9752 55.7287 24.025 55.9762L24.4936 56.3816C24.6022 56.3332 24.7587 56.2638 24.9724 56.1694C25.0305 56.3587 25.0809 56.5245 25.1419 56.7224C25.4687 56.7833 25.8107 56.8825 26.157 56.9006C26.4471 56.9161 26.7655 57.1647 27.038 56.8478C27.2878 57.213 27.6696 57.1237 28.0201 57.1022C28.0275 57.2088 28.0329 57.2836 28.0372 57.342C29.3212 57.2671 30.5438 57.5619 31.7542 57.9481C32.1654 57.9084 32.5763 57.869 32.9834 57.8301L33.2666 58.0751C33.8771 58.1317 34.408 58.1808 35.0123 58.2364C34.9608 58.4953 34.9245 58.6791 34.8776 58.9162C35.2428 58.9885 35.5863 59.0562 35.9044 59.1189C36.0421 58.8497 36.1613 58.6176 36.2788 58.3874C37.0813 58.4885 37.8178 58.5812 38.7595 58.6999C38.3976 58.9657 38.1503 58.9046 37.9005 58.9497C38.0584 59.4483 38.4502 59.1486 38.7222 59.2065C38.7535 59.3393 38.7836 59.4716 38.849 59.755C39.0286 59.631 39.1967 59.5152 39.3648 59.3994C39.3718 59.4793 39.3787 59.5593 39.386 59.6389C39.4163 59.4741 39.4467 59.3092 39.4805 59.1276C39.8049 59.211 40.0727 59.2801 40.3366 59.3485C40.3567 59.4912 40.3718 59.5997 40.3879 59.7165C40.4887 59.7134 40.5957 59.7106 40.734 59.7065C40.8915 59.4364 41.0596 59.1497 41.2122 58.8879C42.249 59.0778 43.2352 59.259 44.2218 59.44C44.2246 59.4835 44.2281 59.527 44.2309 59.57C44.1261 59.5949 44.0216 59.62 43.7627 59.6819C44.2626 59.9759 44.6751 60.2182 45.1544 60.4999C44.9677 60.9112 44.7949 61.2914 44.5438 61.8431C44.5476 61.8634 44.5902 62.0832 44.6442 62.3621C43.3034 62.1759 42.024 62.2893 40.7597 62.3122C39.0098 62.3439 37.3015 62.0463 35.5695 61.9675C33.7661 61.8855 31.9728 61.5641 30.1745 61.3529C29.1506 61.2323 28.1223 61.1433 27.1008 61.0028C25.667 60.8052 24.2268 60.6289 22.8136 60.3302C22.191 60.1984 21.5564 60.3001 20.9297 60.0438C20.3917 59.8237 19.739 59.8812 19.1363 59.8226C17.5973 59.6725 16.0644 59.4774 14.5095 59.5014C13.497 59.5176 12.4816 59.4004 11.3193 59.3347L10.2991 58.4521C10.5054 58.1978 10.6398 57.8481 11.1461 57.8123C10.9432 57.593 10.7534 57.3882 10.5741 57.1947C10.771 56.1416 11.3526 55.3269 12.2218 54.5426C12.3515 54.5547 12.6111 54.5788 13.0867 54.6222C13.1458 54.6426 13.4391 54.7435 13.7911 54.8652C13.9264 54.5139 14.028 54.2502 14.1237 54.0016C14.6158 53.8912 15.1016 53.7468 15.5975 53.6813C16.0201 53.6252 16.3971 53.161 16.8806 53.6828C16.8642 53.4479 16.8585 53.3728 16.8487 53.2329C17.3763 53.4232 17.8171 52.713 18.3655 53.1743C18.5129 53.04 18.6451 52.9195 18.8016 52.7766C18.8862 52.8213 18.979 52.8704 19.0819 52.9249C20.3467 52.2435 21.7703 52.0731 23.1918 51.8C23.246 51.7373 23.3049 51.6047 23.3966 51.5746C23.7676 51.4535 24.2059 51.1969 24.5133 51.3013C25.0125 51.4713 25.4708 50.9017 25.9275 51.3614C26.1182 51.165 26.295 50.9827 26.4844 50.7873C26.6094 50.8346 26.7392 50.884 26.8981 50.9441C26.9898 50.8488 27.0903 50.7441 27.2461 50.583C27.6151 50.5661 28.0442 50.5462 28.552 50.5227C28.4766 50.7927 28.432 50.9519 28.3699 51.1725C28.699 51.082 28.9958 51.0004 29.293 50.9184C29.3137 50.7874 29.334 50.657 29.3659 50.4486C29.572 50.4851 29.7642 50.5599 29.945 50.5383C30.1031 50.5195 30.2483 50.3921 30.3968 50.3141C30.4096 50.1987 30.4248 50.059 30.4511 49.8216C30.6654 49.8607 30.8484 49.8948 31.1567 49.9512C31.1966 50.012 31.3283 50.2119 31.4777 50.4392L31.7772 50.0931C32.2026 50.1895 32.499 50.2602 32.9038 49.9538C33.5917 49.4327 34.4745 49.2183 35.2835 48.8967C35.4073 48.8472 35.5976 48.9653 35.7553 49.0059C35.7578 48.8859 35.76 48.7865 35.7596 48.7965C36.2409 48.7238 36.681 48.5924 37.1153 48.6095C37.557 48.6263 37.9935 48.7897 38.5428 48.9145C38.7804 48.7936 38.6429 48.5892 38.0984 48.2829C38.6045 48.3018 38.7744 48.3081 38.9805 48.3161C39.0413 48.4623 39.1039 48.6128 39.223 48.8993C39.3355 48.5832 39.4112 48.371 39.4963 48.1314C39.5865 48.1119 39.6906 48.0885 39.8602 48.0513C39.8449 47.9077 39.887 47.6544 39.7991 47.5953C39.3688 47.3063 39.2366 46.866 39.0837 46.466C38.3165 46.0892 38.067 45.2697 37.5429 44.7024C36.9654 44.0785 36.4106 43.4144 35.9679 42.6929C35.5432 42.0024 35.1281 41.2845 34.582 40.7167C34.0019 40.1141 33.6221 39.3889 33.097 38.7588C32.5616 38.1166 32.1134 37.3919 31.6977 36.6626C31.2977 35.9595 30.7415 35.3736 30.3476 34.6571C29.9473 33.929 29.4767 33.2075 28.9581 32.5578C28.444 31.9137 28.1464 31.1639 27.6806 30.5045C27.2164 29.8477 26.7828 29.1675 26.3705 28.4767C25.9425 27.7598 25.5621 27.0144 25.1496 26.2878C24.7531 25.5893 24.3423 24.8987 23.9035 24.1461C23.8832 23.8651 23.8561 23.4938 23.8296 23.1275C23.9253 23.115 24.034 23.1001 24.1321 23.0874C24.4747 22.7446 24.1575 22.4763 24.07 22.233C24.32 21.8073 24.5537 21.4087 24.8065 20.9778C24.8627 20.9717 24.9731 20.9593 25.0754 20.9481C25.0628 20.1562 25.6961 20.0382 26.2381 19.9226C26.7856 19.8064 27.3613 19.8247 27.9636 19.7811C28.8862 20.3778 30.1776 20.3285 30.898 21.3931C31.0332 21.2894 31.1167 21.2252 31.2563 21.1176C31.8331 21.4715 32.4428 21.8461 33.1329 22.2702C33.156 22.2556 33.2691 22.1837 33.3531 22.1304C33.9411 22.4091 34.5194 22.6656 35.0793 22.9573C35.2993 23.072 35.5861 23.2287 35.6547 23.4304C35.8295 23.9431 36.1259 24.1969 36.6558 24.2966C36.8993 24.3424 37.1044 24.5877 37.421 24.6201L36.7509 24.0404C36.8884 23.9796 36.9751 23.9238 36.9888 23.9383C37.4008 24.366 37.9605 24.5529 38.4781 24.7662C38.9142 24.9458 39.3463 25.215 39.4726 25.5659C39.6365 26.0209 40.0283 26.1239 40.3262 26.6285C40.3517 26.3433 40.3592 26.2606 40.3666 26.1766C41.1547 26.2894 41.4445 26.3818 41.6724 26.9224C41.8546 27.3549 42.2255 27.4617 42.5845 27.6469C42.38 27.425 42.1754 27.2031 41.8236 26.8216C42.4778 27.1821 42.9372 27.4355 43.5853 27.793C42.7617 26.0158 42.4843 24.2904 42.0227 22.6165C41.5523 20.9115 41.443 19.9921 41.5118 18.5274C41.524 18.2613 41.3667 17.9905 41.3588 17.7198C41.3461 17.2508 41.4284 16.7771 41.3967 16.3104C41.3675 15.8821 41.1738 15.4609 41.1688 15.0349C41.1566 13.9075 41.332 12.7831 41.2445 11.6504C41.2359 11.5394 41.4057 11.4141 41.5028 11.2823C41.4466 11.1028 41.316 10.8999 41.3356 10.7126C41.4315 9.79714 41.5068 8.87257 41.7093 7.97816C41.8703 7.26735 41.9733 6.54427 42.1944 5.83351C42.4127 5.13119 42.8318 4.57584 43.1257 3.94615C43.4301 3.29485 44.06 2.85612 44.7867 2.52961C44.9397 3.57069 46.077 3.40389 46.6539 3.96652C46.3868 3.69658 46.1195 3.42637 45.8521 3.15616C45.8942 3.11318 45.9369 3.07016 45.979 3.02718L46.5444 3.51634C46.7154 3.66431 46.884 3.81509 47.0577 3.95934C47.2529 4.12054 47.415 4.36048 47.7285 4.25706C47.6165 4.6005 48.0781 4.48285 48.0882 4.68709C48.1071 5.05338 48.5649 4.70843 48.618 5.05344C48.6476 5.24393 48.8059 5.43012 48.9447 5.58306C49.1163 5.77209 49.3279 5.92447 49.5042 6.07705C49.431 6.26235 49.3801 6.39141 49.2995 6.59546C49.4818 6.48977 49.5971 6.423 49.7574 6.32948C49.8547 6.39997 49.9697 6.48299 50.1574 6.61918C50.1799 6.92501 50.2064 7.2875 50.2302 7.6132C50.3885 7.73595 50.503 7.82458 50.6075 7.9057C50.7563 7.823 50.8774 7.75581 51.0448 7.66237C50.9891 7.86667 50.9464 8.02304 50.904 8.17968L51.0913 8.34174C51.2378 8.27682 51.3946 8.20764 51.5673 8.13084C51.9206 8.7158 52.1807 9.34067 52.7287 9.79233C52.9767 9.99699 53.0705 10.3887 53.2519 10.7291C53.2448 10.7285 53.3117 10.7321 53.414 10.738C53.7447 11.225 54.0874 11.7297 54.5094 12.3517C54.1939 12.3422 53.9832 12.3357 53.7872 12.3299C54.0267 12.6039 54.2253 12.739 54.5986 12.8741C54.6061 12.9091 54.6174 12.9435 54.6215 12.9793C54.6289 13.0542 54.6329 13.1294 54.639 13.2174C54.7132 13.2088 54.7868 13.1985 54.8606 13.1922C54.8965 13.1893 54.9333 13.1937 54.9724 13.1953C55.1339 13.4632 55.2964 13.733 55.51 14.0876L54.8601 14.8388C54.8824 14.8909 54.9049 14.9427 54.9278 14.9948C55.0909 14.948 55.254 14.9007 55.4862 14.8343C55.5057 14.7433 55.5399 14.5823 55.6055 14.276C55.9163 14.7157 56.1701 15.0744 56.4161 15.4231C56.3496 15.5462 56.2993 15.6386 56.2472 15.7348C56.9305 15.8155 57.0429 16.3257 57.1494 16.8533C57.1836 17.0214 57.256 17.1903 57.3464 17.3365C57.549 17.6645 57.774 17.9786 58.0347 18.3635C58.0289 18.376 57.9855 18.4711 57.8964 18.6678C58.0641 18.7943 58.2653 18.9459 58.5855 19.1868C58.5722 19.104 58.5617 19.2149 58.6067 19.2933C58.9707 19.9286 59.4095 20.5197 59.7214 21.186C59.7509 21.2488 59.8291 21.2863 59.8706 21.3453C60.1404 21.7298 59.9117 22.3069 60.3462 22.622C60.7298 22.9003 60.7084 23.3758 60.9272 23.7343C61.1627 24.1199 61.3622 24.5275 61.5704 24.9288C61.6348 25.0525 61.6542 25.2035 61.7349 25.3122C61.8222 25.4304 61.9565 25.5137 62.1222 25.6571C62.1107 25.8312 62.0966 26.0545 62.0857 26.2197L62.6652 26.7211C62.6967 27.3766 62.7179 28.0402 63.3201 28.4899C63.3738 28.5298 63.4381 28.6018 63.4387 28.6593C63.4483 29.6333 64.2161 30.2975 64.4576 31.1933C64.6907 32.0571 65.2097 32.8397 65.5187 33.6886C65.9283 34.8131 66.2568 35.9665 66.6141 37.1097C66.6472 37.2145 66.6612 37.3401 66.6378 37.4457C66.4194 38.4338 66.1902 39.4197 65.9862 40.3133C65.5413 40.6629 65.1756 40.9501 64.7055 41.3194C64.4954 41.285 64.1503 41.228 63.8151 41.173C63.5106 40.6006 63.1879 40.0608 62.9312 39.4908C62.6731 38.9181 62.436 38.3274 62.2686 37.7231C61.9014 36.4004 61.2474 35.1937 60.7885 33.9111C60.5169 33.152 60.0179 32.4727 59.9751 31.6327C59.2004 30.4986 58.7695 29.2013 58.1938 27.972C57.9448 27.4406 57.7729 26.8657 57.4338 26.3675C57.1208 25.9089 56.8803 25.4012 56.6059 24.9163C55.7492 23.3995 54.8996 21.8797 54.0317 20.3696C53.5799 19.5833 53.1099 18.8059 52.6218 18.0413C52.1301 17.2714 51.5486 16.54 51.1014 15.7647C50.3175 14.4063 49.1958 13.3213 48.3691 12.0048C47.9327 11.3095 47.2505 10.761 46.6427 10.1848C46.0509 9.62291 45.4127 9.10966 44.6168 8.42104Z" fill="#45C9F9"/>
</svg>
