<svg width="40" height="8" viewBox="0 0 40 8" fill="none" xmlns="http://www.w3.org/2000/svg">
<path d="M3.47713 7.23437C2.58058 7.23437 1.80942 6.9189 1.18767 6.29726C0.565614 5.6752 0.250565 4.89631 0.250565 3.99062C0.250565 3.08493 0.56577 2.30743 1.18767 1.68398C1.80943 1.06223 2.58059 0.746869 3.47713 0.746869C3.93388 0.746869 4.36017 0.82576 4.76756 0.990033C5.17509 1.15433 5.50851 1.38239 5.77107 1.68085L5.83299 1.75136L5.13357 2.45058L5.06365 2.36464C4.88955 2.1507 4.66809 1.98449 4.38748 1.86367C4.10789 1.74315 3.80166 1.68749 3.47713 1.68749C2.84565 1.68749 2.32169 1.90194 1.88416 2.33788C1.88406 2.33798 1.88386 2.33798 1.88376 2.33809C1.45616 2.78283 1.24118 3.32431 1.24118 3.99062C1.24118 4.65745 1.45642 5.19905 1.88454 5.64395C2.32207 6.0797 2.84599 6.29531 3.47712 6.29531C4.05518 6.29531 4.53327 6.13395 4.90915 5.81445H4.90935C5.25926 5.51712 5.46926 5.11532 5.54353 4.60312H3.37712V3.68125H6.47986L6.49314 3.76562C6.51856 3.92768 6.5365 4.08411 6.5365 4.23438C6.5365 5.09455 6.27425 5.7967 5.75974 6.31328C5.17894 6.92898 4.4151 7.23438 3.47712 7.23438L3.47713 7.23437ZM30.4189 7.23437C29.521 7.23437 28.7589 6.91875 28.1451 6.29726C28.145 6.29719 28.145 6.29716 28.1449 6.29706C28.1448 6.29699 28.1448 6.29696 28.1447 6.29686C27.5301 5.68206 27.2252 4.903 27.2252 3.99061C27.2252 3.07822 27.5301 2.29915 28.1447 1.68436C28.1448 1.68429 28.1448 1.68426 28.1449 1.68416L28.1451 1.68396C28.7589 1.06236 29.521 0.74685 30.4189 0.74685C31.3151 0.74685 32.0775 1.06244 32.6912 1.69334C33.306 2.30803 33.6111 3.08562 33.6111 3.9906C33.6111 4.90299 33.3062 5.68205 32.6916 6.29685L32.6914 6.29705C32.0773 6.91899 31.3078 7.23436 30.4189 7.23436L30.4189 7.23437ZM7.42439 7.09999V0.881244H7.52439H11.1385V1.82187H8.39783V3.52968H10.8697V4.45156H8.39783V6.16093H11.1385V7.09999H7.42439ZM13.4115 7.09999V1.82187H11.7303V0.881244H16.0662V1.82187H15.9662H14.3849V7.09999H13.4115ZM18.8373 7.09999V0.881244H19.8107V0.981244V7.09999H18.8373ZM22.2611 7.09999V1.82187H20.5799V0.881244H24.9158V1.82187H24.8158H23.2345V7.09999H22.2611ZM34.4752 7.09999V0.881244H35.5728L38.3664 5.35351L38.3424 4.50449V0.881244H39.3158V7.09999H38.3525L35.4246 2.40175L35.4486 3.25019V3.25156V7.09999H34.4752ZM30.4189 6.29531C31.0504 6.29531 31.5659 6.07993 31.9861 5.64472L31.9867 5.64392L31.9873 5.64332C32.4135 5.21702 32.6221 4.66821 32.6221 3.99059C32.6221 3.31461 32.4134 2.76397 31.9873 2.33785L31.9867 2.33725L31.9861 2.33665C31.566 1.90152 31.0506 1.68743 30.4189 1.68743C29.7862 1.68743 29.2708 1.90115 28.8428 2.33626L28.8424 2.33666C28.424 2.77312 28.2158 3.3148 28.2158 3.99057C28.2158 4.66798 28.424 5.20794 28.8424 5.64447L28.8428 5.64487C29.2709 6.08006 29.7864 6.29526 30.4189 6.29526V6.29531Z" fill="white"/>
</svg>
