<svg width="24" height="26" viewBox="0 0 24 26" fill="none" xmlns="http://www.w3.org/2000/svg">
<path d="M11.7145 12.4232L1.06804 23.7232C1.06844 23.7256 1.06924 23.7275 1.06964 23.7299C1.39614 24.9568 2.51684 25.8603 3.84694 25.8603C4.37864 25.8603 4.87784 25.7166 5.30594 25.4642L5.33994 25.4443L17.3239 18.5291L11.7145 12.4232Z" fill="#EA4335"/>
<path d="M22.4856 10.499L22.4754 10.492L17.3016 7.49274L11.4727 12.6795L17.3219 18.5279L22.4684 15.5584C23.3707 15.0713 23.9832 14.1201 23.9832 13.0232C23.9832 11.9342 23.3789 10.9877 22.4856 10.499Z" fill="#FBBC04"/>
<path d="M1.06764 2.27633C1.00364 2.51233 0.970001 2.75953 0.970001 3.01623V22.9838C0.970001 23.2401 1.00324 23.4881 1.06804 23.7233L12.0809 12.7123L1.06764 2.27633Z" fill="#4285F4"/>
<path d="M11.793 12.9999L17.3036 7.49086L5.33324 0.550662C4.89814 0.290062 4.39034 0.139664 3.84694 0.139664C2.51684 0.139664 1.39464 1.04476 1.06804 2.27326C1.06764 2.27446 1.06764 2.27526 1.06764 2.27636L11.793 12.9999Z" fill="#34A853"/>
</svg>
