<svg width="28" height="28" viewBox="0 0 28 28" fill="none" xmlns="http://www.w3.org/2000/svg">
<rect width="28" height="28" rx="8" fill="white"/>
<path d="M10.4376 12.3151H8.15949V18.9866H10.4376V12.3151Z" fill="#45C9F9"/>
<path d="M10.0546 9.20164C9.8375 9.07017 9.58234 9 9.32133 9C9.14718 9 8.97474 9.03124 8.81393 9.09194C8.65312 9.15264 8.50713 9.24159 8.38433 9.35367C8.26154 9.46576 8.16437 9.59878 8.09841 9.74507C8.03246 9.89136 7.99902 10.048 8.00002 10.2061C8.00152 10.443 8.08029 10.6742 8.22639 10.8705C8.37248 11.0668 8.57936 11.2194 8.82093 11.3091C9.0625 11.3988 9.32793 11.4216 9.58373 11.3745C9.83954 11.3275 10.0743 11.2127 10.2583 11.0448C10.4423 10.8768 10.5674 10.6631 10.6178 10.4306C10.6682 10.1982 10.6416 9.95744 10.5413 9.73872C10.4411 9.51999 10.2717 9.3331 10.0546 9.20164Z" fill="#45C9F9"/>
<path d="M14.0944 12.3147H11.8998L11.8923 19H14.1704V15.6987C14.1704 14.8303 14.3526 13.9895 15.5372 13.9895C16.7219 13.9895 16.7219 14.9888 16.7219 15.7607V18.9862H19V15.3265C19 13.5277 18.5368 12.1493 16.2587 12.1493C15.8245 12.1339 15.3938 12.2258 15.0126 12.4151C14.6315 12.6045 14.3141 12.8842 14.0944 13.2245V12.3147Z" fill="#45C9F9"/>
</svg>
