<svg width="240" height="55" viewBox="0 0 240 55" fill="none" xmlns="http://www.w3.org/2000/svg">
<g filter="url(#filter0_d_34_334)">
<path fill-rule="evenodd" clip-rule="evenodd" d="M0 5C0 2.23857 2.23858 0 5 0H235C237.761 0 240 2.23858 240 5V50C240 52.7614 237.761 55 235 55H5C2.23857 55 0 52.7614 0 50V5Z" fill="#1278F1"/>
<path d="M1 5C1 2.79086 2.79086 1 5 1H235C237.209 1 239 2.79086 239 5V50C239 52.2091 237.209 54 235 54H5C2.79086 54 1 52.2091 1 50V5Z" stroke="#F2F4F6" stroke-width="2"/>
</g>
<defs>
<filter id="filter0_d_34_334" x="-13" y="-9" width="266" height="81" filterUnits="userSpaceOnUse" color-interpolation-filters="sRGB">
<feFlood flood-opacity="0" result="BackgroundImageFix"/>
<feColorMatrix in="SourceAlpha" type="matrix" values="0 0 0 0 0 0 0 0 0 0 0 0 0 0 0 0 0 0 127 0" result="hardAlpha"/>
<feOffset dy="4"/>
<feGaussianBlur stdDeviation="6.5"/>
<feColorMatrix type="matrix" values="0 0 0 0 0 0 0 0 0 0 0 0 0 0 0 0 0 0 0.0442991 0"/>
<feBlend mode="normal" in2="BackgroundImageFix" result="effect1_dropShadow_34_334"/>
<feBlend mode="normal" in="SourceGraphic" in2="effect1_dropShadow_34_334" result="shape"/>
</filter>
</defs>
</svg>
