<svg width="830" height="45" viewBox="0 0 700 50" fill="none" xmlns="http://www.w3.org/2000/svg">
  <g filter="url(#filter0_d_34_334)">
    <path fill-rule="evenodd" clip-rule="evenodd" d="M0 5C0 2.23857 2.23858 0 5 0H475C477.761 0 480 2.23858 480 5V50C480 52.7614 477.761 55 475 55H5C2.23857 55 0 52.7614 0 50V5Z" fill="#000000"/>
    <path d="M1 5C1 2.79086 2.79086 1 5 1H475C477.209 1 479 2.79086 479 5V50C479 52.2091 477.209 54 475 54H5C2.79086 54 1 52.2091 1 50V5Z" stroke="#F2F4F6" stroke-width="2"/>
  </g>

</svg>
