<svg width="183" height="79" viewBox="0 0 183 79" fill="none" xmlns="http://www.w3.org/2000/svg">
<circle opacity="0.2" cx="143.5" cy="39.5" r="39.5" fill="#45C9F9"/>
<path d="M144.611 46.3054L151.004 39.8212C151.149 39.6742 151.23 39.4761 151.23 39.2698C151.23 39.0634 151.149 38.8653 151.004 38.7184L144.612 32.2341C144.465 32.0857 144.266 32.0015 144.058 32C143.849 31.9985 143.649 32.0799 143.5 32.2262C143.352 32.3725 143.268 32.5717 143.266 32.7801C143.265 32.9885 143.346 33.1889 143.492 33.3373L148.566 38.4841H135.785C135.577 38.4841 135.377 38.5669 135.23 38.7142C135.083 38.8616 135 39.0614 135 39.2698C135 39.4781 135.083 39.678 135.23 39.8253C135.377 39.9726 135.577 40.0554 135.785 40.0554H148.566L143.492 45.2022C143.346 45.3506 143.264 45.5511 143.266 45.7594C143.267 45.9678 143.352 46.1671 143.5 46.3134C143.648 46.4597 143.849 46.541 144.057 46.5395C144.266 46.538 144.465 46.4538 144.611 46.3054Z" fill="#45C9F9"/>
<circle cx="39.5" cy="39.5" r="39.5" transform="matrix(-1 0 0 1 79 0)" fill="#F8F8F8"/>
<path d="M38.3888 46.3054L31.9956 39.8212C31.8507 39.6742 31.7695 39.4761 31.7695 39.2698C31.7695 39.0634 31.8507 38.8653 31.9956 38.7184L38.3884 32.2341C38.5347 32.0857 38.734 32.0015 38.9424 32C39.1508 31.9985 39.3512 32.0799 39.4996 32.2262C39.648 32.3725 39.7322 32.5717 39.7337 32.7801C39.7352 32.9885 39.6538 33.1889 39.5075 33.3373L34.4336 38.4841H47.2146C47.423 38.4841 47.6228 38.5669 47.7701 38.7142C47.9175 38.8616 48.0002 39.0614 48.0002 39.2698C48.0002 39.4781 47.9175 39.678 47.7701 39.8253C47.6228 39.9726 47.423 40.0554 47.2146 40.0554H34.434L39.5079 45.2022C39.6542 45.3506 39.7355 45.5511 39.7341 45.7594C39.7326 45.9678 39.6484 46.1671 39.5 46.3134C39.3516 46.4597 39.1511 46.541 38.9427 46.5395C38.7344 46.538 38.5351 46.4538 38.3888 46.3054Z" fill="#515151"/>
</svg>
