<svg width="78" height="13" viewBox="0 0 78 13" fill="none" xmlns="http://www.w3.org/2000/svg">
<path d="M6.6574 0L8.22899 4.83688H13.3148L9.20029 7.82624L10.7719 12.6631L6.6574 9.67376L2.5429 12.6631L4.1145 7.82624L0 4.83688H5.0858L6.6574 0Z" fill="#FFC700"/>
<path d="M22.6574 0L24.229 4.83688H29.3148L25.2003 7.82624L26.7719 12.6631L22.6574 9.67376L18.5429 12.6631L20.1145 7.82624L16 4.83688H21.0858L22.6574 0Z" fill="#FFC700"/>
<path d="M38.6574 0L40.229 4.83688H45.3148L41.2003 7.82624L42.7719 12.6631L38.6574 9.67376L34.5429 12.6631L36.1145 7.82624L32 4.83688H37.0858L38.6574 0Z" fill="#FFC700"/>
<path d="M54.6574 0L56.229 4.83688H61.3148L57.2003 7.82624L58.7719 12.6631L54.6574 9.67376L50.5429 12.6631L52.1145 7.82624L48 4.83688H53.0858L54.6574 0Z" fill="#FFC700"/>
<path d="M70.6574 0L72.229 4.83688H77.3148L73.2003 7.82624L74.7719 12.6631L70.6574 9.67376L66.5429 12.6631L68.1145 7.82624L64 4.83688H69.0858L70.6574 0Z" fill="#FFC700"/>
</svg>
