<svg width="24" height="24" viewBox="0 0 24 24" fill="none" xmlns="http://www.w3.org/2000/svg">
  <!-- Black Circle -->
  <circle cx="12" cy="12" r="10" fill="black" />
  
  <!-- White Question Mark -->
  <path fill-rule="evenodd" clip-rule="evenodd" d="M12 16.25C12.6904 16.25 13.25 15.6904 13.25 15C13.25 14.3096 12.6904 13.75 12 13.75C11.3096 13.75 10.75 14.3096 10.75 15C10.75 15.6904 11.3096 16.25 12 16.25ZM11.25 10.75C11.25 10.3358 11.5858 10 12 10C12.4142 10 12.75 10.3358 12.75 10.75C12.75 11.1642 12.4142 11.5 12 11.5C11.5858 11.5 11.25 11.1642 11.25 10.75ZM12 5C13.6569 5 15 6.34315 15 8C15 8.672 14.732 9.3095 14.2071 9.70711C13.6821 10.1047 13.25 10.75 13.25 11.5C13.25 12.0523 13.4477 12.5 13.75 12.5C14.0523 12.5 14.25 12.3023 14.25 12C14.25 11.302 14.702 10.75 15.5 10.75C16.8807 10.75 18 9.63017 18 8C18 6.36984 16.8807 5 15 5C13.1193 5 12 5.86403 12 5Z" fill="white"/>
</svg>

